<svg xmlns="http://www.w3.org/2000/svg" viewBox="0 0 459.213 144.473"><path d="M21.919 21.915h100.635v100.644H21.919zm122.553 122.557H-.001V-.001h144.474v144.473zM139.294 5.178H5.177v134.116h134.117V5.178z" fill="#e31837"/><path fill="#bcbec0" d="M5.177 139.292l16.742-16.733h100.635l16.741 16.733z"/><path fill="#e6e7e8" d="M5.177 5.176l16.742 16.739v100.644L5.177 139.292z"/><path fill="#fff" d="M5.177 5.176l16.742 16.739h100.635l16.741-16.739z"/><path fill="#939598" d="M122.554 21.915l16.741-16.739v134.116l-16.741-16.733z"/><path fill="#fff" d="M86.287 80.9h11.522v2.083c0 8.421-1.54 13.864-4.61 16.33s-9.869 3.701-20.387 3.701c-11.936 0-19.277-1.948-22.025-5.854-2.746-3.897-4.119-14.324-4.119-31.283 0-9.982 1.861-16.55 5.582-19.696s11.508-4.719 23.355-4.719c8.626 0 14.389 1.294 17.283 3.875s4.342 7.719 4.342 15.402l.043 1.374H85.751v-1.551c0-3.962-.746-6.493-2.236-7.604s-4.896-1.663-10.215-1.663c-7.121 0-11.398.875-12.83 2.618s-2.148 6.91-2.148 15.507c0 11.582.642 18.436 1.928 20.563s5.442 3.19 12.476 3.19c5.702 0 9.401-.594 11.103-1.771 1.693-1.183 2.547-3.781 2.547-7.8l-.089-2.702z"/><path d="M179.291 21.917h100.637v100.644H179.291zm122.553 122.557H157.371V.001h144.474v144.473zM296.667 5.18H162.548v134.116h134.118V5.18z" fill="#e31837"/><path fill="#bcbec0" d="M162.548 139.294l16.742-16.733h100.635l16.741 16.733z"/><path fill="#e6e7e8" d="M162.548 5.178l16.742 16.739v100.644l-16.742 16.733z"/><path fill="#fff" d="M162.548 5.178l16.742 16.739h100.635l16.741-16.739z"/><path fill="#939598" d="M279.925 21.917l16.741-16.739v134.116l-16.741-16.733z"/><path fill="#fff" d="M220.259 51.65v15.598h28.365v8.471h-28.365v17.105h30.179v9.658h-41.655v-60.49h41.391v9.658h-29.915z"/><path d="M336.66 21.915h100.636v100.644H336.66zm122.552 122.557H314.74V-.001h144.473v144.473zM454.035 5.178H319.917v134.116h134.117V5.178z" fill="#e31837"/><path fill="#bcbec0" d="M319.916 139.292l16.741-16.737h100.635l16.741 16.737z"/><path fill="#e6e7e8" d="M319.916 5.176l16.741 16.739v100.64l-16.741 16.737z"/><path fill="#fff" d="M319.916 5.176l16.741 16.739h100.635l16.741-16.739z"/><path fill="#939598" d="M437.292 21.915l16.741-16.739v134.116l-16.741-16.737z"/><path fill="#fff" d="M378.421 51.65v16.308h27.123v9.662h-27.123v24.861h-11.475V41.993h40.061v9.657h-28.586z"/></svg>